<svg width="112" height="19" viewBox="0 0 112 19" fill="none" xmlns="http://www.w3.org/2000/svg">
<path d="M9.552 1.41309L12.0387 6.70202L17.5995 7.55535L13.5758 11.6699L14.5254 17.4827L9.552 14.7368L4.57862 17.4827L5.52823 11.6699L1.50446 7.55535L7.06531 6.70202L9.552 1.41309Z" fill="#1E1D1D" stroke="#1E1D1D" stroke-width="2" stroke-linecap="round" stroke-linejoin="round"/>
<path d="M56.2278 1.13867L58.7145 6.42761L64.2753 7.28094L60.2515 11.3955L61.2011 17.2083L56.2278 14.4624L51.2544 17.2083L52.204 11.3955L48.1802 7.28094L53.7411 6.42761L56.2278 1.13867Z" fill="#1E1D1D" stroke="#1E1D1D" stroke-width="2" stroke-linecap="round" stroke-linejoin="round"/>
<path d="M79.5656 1.13867L82.0523 6.42761L87.6131 7.28094L83.5894 11.3955L84.539 17.2083L79.5656 14.4624L74.5922 17.2083L75.5418 11.3955L71.518 7.28094L77.0789 6.42761L79.5656 1.13867Z" fill="#1E1D1D" stroke="#1E1D1D" stroke-width="2" stroke-linecap="round" stroke-linejoin="round"/>
<path d="M102.501 1.13867L104.988 6.42761L110.549 7.28094L106.525 11.3955L107.474 17.2083L102.501 14.4624L97.5277 17.2083L98.4773 11.3955L94.4536 7.28094L100.014 6.42761L102.501 1.13867Z" fill="#1E1D1D" stroke="#1E1D1D" stroke-width="2" stroke-linecap="round" stroke-linejoin="round"/>
<path d="M32.8899 1.13867L35.3766 6.42761L40.9374 7.28094L36.9137 11.3955L37.8633 17.2083L32.8899 14.4624L27.9165 17.2083L28.8661 11.3955L24.8423 7.28094L30.4032 6.42761L32.8899 1.13867Z" fill="#1E1D1D" stroke="#1E1D1D" stroke-width="2" stroke-linecap="round" stroke-linejoin="round"/>
</svg>
